<svg xmlns="http://www.w3.org/2000/svg" viewBox="0 0 800 600" width="800" height="600"><g transform="translate(571.0 234.0) rotate(0.0 55.5 125.0) scale(1.15625 1.1574074074074074)"><svg width="96" height="216" viewBox="0 0 96 216"><path d="M0 0h96v216H0z" fill="#F8F8F9"/></svg></g><g transform="translate(665.0 182.0) rotate(0.0 46.0 150.0) scale(1.0 1.0)"><svg width="92" height="300" viewBox="0 0 92 300"><path d="M0 0h92v300H0z" fill="#f3f4f6"/><g fill="#fff"><path d="M16 16.602h6v32h-6zm18 0h6v32h-6zm18 0h6v32h-6zm18 0h6v32h-6zM16 70.034h6v12.714h-6zm18 0h6v12.714h-6zm18 0h6v12.714h-6zm18 0h6v12.714h-6zM16 95.745h6v12.714h-6zm18 0h6v12.714h-6zm18 0h6v12.714h-6zm18 0h6v12.714h-6zm-54 25.711h6v12.714h-6zm18 0h6v12.714h-6zm18 0h6v12.714h-6zm18 0h6v12.714h-6zm-54 25.711h6v12.714h-6zm18 0h6v12.714h-6zm18 0h6v12.714h-6zm18 0h6v12.714h-6z"/></g></svg></g><g transform="translate(130.0 264.0) rotate(0.0 45.0 101.5) translate(0.0 0.0) scale(0.9375 0.9398148148148148)"><svg width="96" height="216" viewBox="0 0 96 216"><path d="M0 0h96v216H0z" fill="#F8F8F9"/></svg></g><g transform="translate(186.0 45.0) rotate(0.0 280.0 226.5) scale(1.0148420652036028 1.0139763092157688)"><svg width="551.81" height="446.756" viewBox="0 0 551.81 446.756"><g fill="#e8e9ec"><path d="M545.598 382.173h-25.735l-6.212 64.583h38.159zM523.945 92.686h19.523v15.086h-19.523zm0-54.38h19.523v15.086h-19.523z"/><path d="M530.161 47.822c-.106 0-.213-.004-.321-.015L81.847 7H8.35a3.5 3.5 0 1 1 0-7h73.657c.106 0 .212.005.317.015l448.15 40.822a3.5 3.5 0 0 1-.313 6.985z"/><path d="M533.71 103.73c-.22 0-.444-.021-.668-.064L83.445 16.762H10.787a3.5 3.5 0 1 1 0-7h72.994c.223 0 .445.021.664.063l449.926 86.968a3.5 3.5 0 0 1-.661 6.937z"/><path d="M374.019 28.348h7v41.709h-7zM240.018 17.699h7v24.848h-7zM17.274 2.613h7v22.186h-7z"/><path d="M0 20.193h39.934v82.531H0z"/></g><circle cx="19.967" cy="86.522" fill="#fff" r="9.762"/><circle cx="19.967" cy="61.458" fill="#dddee3" r="9.762"/><circle cx="19.967" cy="36.394" fill="#dddee3" r="9.762"/><path d="M526.607 15.924h15.086v375.382h-15.086z" fill="#e8e9ec"/></svg></g><g transform="translate(51.0 187.0) rotate(0.0 46.0 150.0) scale(1.0 1.0)"><svg width="92" height="300" viewBox="0 0 92 300"><path d="M0 0h92v300H0z" fill="#f3f4f6"/><g fill="#fff"><path d="M16 16.602h6v32h-6zm18 0h6v32h-6zm18 0h6v32h-6zm18 0h6v32h-6zM16 70.034h6v12.714h-6zm18 0h6v12.714h-6zm18 0h6v12.714h-6zm18 0h6v12.714h-6zM16 95.745h6v12.714h-6zm18 0h6v12.714h-6zm18 0h6v12.714h-6zm18 0h6v12.714h-6zm-54 25.711h6v12.714h-6zm18 0h6v12.714h-6zm18 0h6v12.714h-6zm18 0h6v12.714h-6zm-54 25.711h6v12.714h-6zm18 0h6v12.714h-6zm18 0h6v12.714h-6zm18 0h6v12.714h-6z"/></g></svg></g><g transform="translate(468.0 204.0) rotate(0.0 53.5 150.0) translate(0.0 0.0) scale(1.0 0.998675091045879)"><svg width="106" height="247.328" viewBox="0 0 106 247.328"><path d="M15 .398h92v300H15z" fill="#f3f4f6"/><path d="M0 0h98v6H0z" fill="#f3f4f6"/><g fill="#fff"><path d="M25 15h68v7H25zm0 24.5h68v7H25zM25 64h68v7H25zm0 24.5h68v7H25zm0 24.5h68v7H25zm0 24.5h68v7H25zm0 24.5h68v7H25zm0 24.5h68v7H25zm0 24.5h68v7H25zm0 24.5h68v7H25z"/></g></svg></g><g transform="translate(319.0 41.0) rotate(0.0 30.5 30.5) scale(0.9978244156184057 0.9978244156184057)"><svg width="61.133" height="61.133" viewBox="0 0 61.133 61.133"><path d="M52.59 57.633H8.543A5.043 5.043 0 0 1 3.5 52.59V8.543A5.043 5.043 0 0 1 8.543 3.5H52.59a5.043 5.043 0 0 1 5.043 5.043v44.048a5.043 5.043 0 0 1-5.043 5.042z" fill="#f3f4f6"/><g fill="#d2d3da"><path d="M52.59 61.133H8.542C3.832 61.133 0 57.301 0 52.59V8.542C0 3.832 3.832 0 8.542 0H52.59c4.71 0 8.543 3.832 8.543 8.542V52.59c0 4.711-3.832 8.543-8.543 8.543zM8.542 7C7.692 7 7 7.692 7 8.542V52.59c0 .851.692 1.543 1.542 1.543H52.59c.851 0 1.543-.692 1.543-1.543V8.542c0-.85-.692-1.542-1.543-1.542z"/><path d="M21.083 45.377h-7v-10.68c0-9.098 7.402-16.5 16.5-16.5h9.499v7h-9.499c-5.238 0-9.5 4.262-9.5 9.5z"/><path d="M36.858 30.112v-17.6l8.8 8.8z"/></g></svg></g><g transform="translate(95.0 291.0) rotate(0.0 251.0 101.5) scale(0.6131514887244861 0.6121279739468685)"><svg width="818.721" height="331.63" viewBox="0 0 818.721 331.63"><path d="M328.471 94.09c0-35.022 22.763-67.472 61.507-94.09H254.12a11.178 11.178 0 0 0-7.732 3.105l-68.092 65.211-91.008 80.548-8.719 5.349-22.915 14.037a52.299 52.299 0 0 0-17.371 17.427l-6.949 11.429a19.385 19.385 0 0 1-6.845 6.688l-12.218 7.069a11.73 11.73 0 0 0-5.825 9.292l-4.341 58.859c-.341 4.629 3.322 8.572 7.963 8.572h37.348v-26.413c0-21.502 17.431-38.933 38.933-38.933h31.539c21.493 0 38.917 17.424 38.917 38.917v26.429h428.771v-26.413c0-2.772.295-5.474.845-8.081-148.06-17.483-257.95-82.032-257.95-159.002z" fill="#dfedff"/><path d="M0 264.587h20.706v17.255H0z" fill="#d4e7ff"/><path d="M259.978 69.223v68.318c0 33.11-5.208 66.013-15.432 97.504l-.936 2.883c-7.388 22.755-28.59 38.162-52.514 38.162H167.95v-12.472c0-26.888-21.797-48.685-48.685-48.685h-3.08v-81.485l78.377-68.55a7.98 7.98 0 0 1 4.999-1.97l52.175-1.685a7.984 7.984 0 0 1 8.242 7.98z" fill="#c9e1ff"/><path d="M807.394 122.443 797.928 8.786A9.582 9.582 0 0 0 788.379 0H389.978a223.548 223.548 0 0 0-11.004 8.06h70.811v211.564c39.043 15.807 85.566 27.439 136.633 33.469 3.721-17.623 19.357-30.851 38.087-30.851h31.523c7.809 0 15.075 2.299 21.159 6.26l4.966-5.334h125.389v-97.125a42.394 42.394 0 0 0-.148-3.6z" fill="#80b6f4"/><path d="M328.471 94.09c0-31.562 18.493-61.032 50.504-86.03H270.331v269.181h179.454v-57.617c-74.153-30.022-121.314-75.112-121.314-125.534z" fill="#c9e1ff"/><path d="M378.974 8.06c-32.011 24.998-50.504 54.468-50.504 86.03 0 50.422 47.162 95.512 121.315 125.534V8.06z" fill="#80b6f4"/><path d="m78.57 154.214-3.928 17.135-29.511 25.758H31.333l6.949-11.429a52.299 52.299 0 0 1 17.371-17.427z" fill="#2888ff"/><path d="m248.475 84.017-10.713 46.422c-4.451 19.287-21.625 32.949-41.418 32.949h-76.73v-25.294l69.954-62.548a9.582 9.582 0 0 1 6.203-2.437l43.185-.826c6.236-.119 10.921 5.657 9.519 11.734z" fill="#4d99f0"/><path d="M108.674 165.731h21.244v-43.094l-27.141 29.726c-4.679 5.124-1.043 13.368 5.897 13.368z" fill="#9ac7ff"/><path d="M279.47 162.112c-1.408 3.941-2.277 9.249-2.277 15.106 0 5.253.697 10.072 1.856 13.854h12.881c1.159-3.782 1.856-8.601 1.856-13.854 0-5.857-.869-11.165-2.277-15.106z" fill="#93c3ff"/><path d="M283.219 165.242h4.54v22.699h-4.54z" fill="#013b84"/><path d="M230.629 162.112c-1.408 3.941-2.277 9.249-2.277 15.106 0 5.253.697 10.072 1.856 13.854h12.881c1.159-3.782 1.856-8.601 1.856-13.854 0-5.857-.869-11.165-2.277-15.106z" fill="#93c3ff"/><path d="M234.378 165.242h4.54v22.699h-4.54z" fill="#013b84"/><path d="M1.104 237.413h7.585v14.771H1.104z" fill="#d4e7ff"/><circle cx="102.108" cy="282.925" fill="#002652" r="48.706"/><circle cx="102.108" cy="282.925" fill="#53a0ff" r="28.744"/><circle cx="102.108" cy="282.925" fill="#2888ff" r="17.566"/><circle cx="109.095" cy="275.14" fill="#016eea" r="2.994"/><circle cx="101.489" cy="259.928" fill="#2888ff" r="3.719"/><circle cx="113.622" cy="263.007" fill="#2888ff" r="3.719"/><circle cx="122.858" cy="272.605" fill="#2888ff" r="3.719"/><circle cx="125.031" cy="285.1" fill="#2888ff" r="3.719"/><circle cx="111.086" cy="288.178" fill="#016eea" r="2.994"/><circle cx="98.952" cy="293.068" fill="#016eea" r="2.994"/><circle cx="91.528" cy="284.013" fill="#016eea" r="2.994"/><circle cx="96.78" cy="273.51" fill="#016eea" r="2.994"/><circle cx="96.472" cy="305.762" fill="#2888ff" r="3.719"/><circle cx="109.664" cy="305.475" fill="#2888ff" r="3.719"/><circle cx="120.532" cy="297.775" fill="#2888ff" r="3.719"/><circle cx="89.331" cy="262.828" fill="#2888ff" r="3.719"/><circle cx="81.242" cy="272.597" fill="#2888ff" r="3.719"/><circle cx="84.468" cy="297.913" fill="#2888ff" r="3.719"/><circle cx="78.855" cy="285.833" fill="#2888ff" r="3.719"/><circle cx="639.83" cy="282.925" fill="#002652" r="48.706"/><circle cx="639.83" cy="282.925" fill="#53a0ff" r="28.744"/><circle cx="639.83" cy="282.925" fill="#2888ff" r="17.566"/><circle cx="646.817" cy="275.14" fill="#016eea" r="2.994"/><circle cx="639.211" cy="259.928" fill="#2888ff" r="3.719"/><circle cx="651.344" cy="263.007" fill="#2888ff" r="3.719"/><circle cx="660.579" cy="272.605" fill="#2888ff" r="3.719"/><circle cx="662.753" cy="285.1" fill="#2888ff" r="3.719"/><circle cx="648.807" cy="288.178" fill="#016eea" r="2.994"/><circle cx="636.674" cy="293.068" fill="#016eea" r="2.994"/><circle cx="629.25" cy="284.013" fill="#016eea" r="2.994"/><circle cx="634.501" cy="273.51" fill="#016eea" r="2.994"/><g fill="#2888ff"><circle cx="634.194" cy="305.762" r="3.719"/><circle cx="647.385" cy="305.475" r="3.719"/><circle cx="658.254" cy="297.775" r="3.719"/><circle cx="627.052" cy="262.828" r="3.719"/><circle cx="618.963" cy="272.597" r="3.719"/><circle cx="622.19" cy="297.913" r="3.719"/><circle cx="616.577" cy="285.833" r="3.719"/><path d="M458.885 143.328h191.629v7.452H458.885z"/></g><path d="M158.666 239.143H471.66v7.452H158.666zm-31.771-73.412h-4.935a9.58 9.58 0 0 1-9.581-9.581v-32.32a9.58 9.58 0 0 1 9.581-9.581h4.935a9.58 9.58 0 0 1 9.581 9.581v32.32c0 5.291-4.29 9.581-9.581 9.581z" fill="#e9f3ff"/><path d="M450.285 215.007h-1V8.067h-64.444v-1h65.444z" fill="#fff"/><path d="m795.506 158.106 15.488-17.31v83.975h-19.556v-56.017c0-3.929 1.449-7.72 4.068-10.648z" fill="#2888ff"/><path d="M694.962 261.167v26.427H809.14a9.58 9.58 0 0 0 9.581-9.581v-45.256a9.58 9.58 0 0 0-9.581-9.581H682.155l-4.96 5.327c10.69 6.938 17.767 18.971 17.767 32.664z" fill="#d4e7ff"/><path d="M408.003 63.747h16.988c4.202 0 7.843.71 10.925 2.13 3.081 1.421 5.432 3.432 7.053 6.032 1.621 2.603 2.431 5.664 2.431 9.185 0 4.922-1.091 9.245-3.271 12.966-2.182 3.722-5.252 6.603-9.214 8.644s-8.524 3.061-13.687 3.061h-19.629zm11.466 35.416c3.681 0 6.883-.759 9.605-2.282 2.721-1.52 4.811-3.61 6.272-6.272 1.46-2.662 2.191-5.673 2.191-9.034 0-3.521-1.14-6.274-3.422-8.254-2.281-1.981-5.603-2.971-9.964-2.971h-9.665l-5.762 28.813zm50.543-28.874-2.161 10.926h20.35l-1.261 6.422h-20.41l-2.281 11.585h23.771l-1.321 6.544h-31.515l8.404-42.019h30.674l-1.321 6.542zm39.798-6.542h7.804l-7.083 35.416h21.97l-1.32 6.603h-29.774zm41.959 0h7.804l-8.404 42.019h-7.804zm63.209 0-26.712 42.019h-7.684l-9.904-42.019h8.044l7.503 32.294 20.649-32.294zm16.927 6.542-2.161 10.926h20.35l-1.261 6.422h-20.41l-2.281 11.585h23.771l-1.321 6.544h-31.515l8.404-42.019h30.674l-1.321 6.542zm68.852 16.358c-2.161 2.782-5.184 4.713-9.065 5.793l7.503 13.326h-8.284l-6.903-12.306h-10.445l-2.402 12.306h-7.864l8.404-42.019h16.328c5.082 0 9.014 1.11 11.795 3.331s4.172 5.333 4.172 9.334c.003 4.043-1.078 7.454-3.239 10.235zm-7.743-2.16c2.08-1.701 3.121-4.151 3.121-7.355 0-2.241-.771-3.931-2.311-5.071-1.541-1.142-3.752-1.711-6.633-1.711h-8.944l-3.361 16.686h9.305c3.8 0 6.741-.848 8.823-2.549zm40.458 6.932-2.881 14.347h-7.744l2.941-14.887-10.985-27.132h7.744l8.284 20.529 16.567-20.529h8.164z" fill="#bedbff"/><path d="M382.598 70.348h32.153v28.539h-32.153zm72.918 0h40.138v11.266h-40.138zm160.756 0h64.358v11.266h-64.358zm-30.075 13.573h21.774v11.266h-21.774zm144.52-11.178h21.774v11.266h-21.774z" fill="#80b6f4"/><path d="M765.492 240.207h52.166v7.452h-52.166z" fill="#bedbff"/></svg></g><g transform="translate(513.0 502.0) rotate(0.0 72.0 7.0) scale(0.7738315948991601 0.7364932400441896)"><svg width="186.087" height="19.009" viewBox="0 0 186.087 19.009"><path d="M186.087 0c0 10.498-8.971 19.009-20.036 19.009H20.036C8.971 19.009 0 10.498 0 0z" fill="#eff0f2"/></svg></g><g transform="translate(626.0 186.0) rotate(0.0 -68.5 165.5) scale(-1.1298503154509092 1.1307425323166898)"><svg width="121.255" height="292.728" viewBox="0 0 121.255 292.728"><path d="m26.648 265.396.043-21.669 21.932.814-3.782 21.5z" fill="#016EEA"/><path d="m66.311 276.045 3.44-2.236a3.343 3.343 0 0 0-1.349-6.111l-7.264-1.038a15.979 15.979 0 0 1-11.179-7.173l-3.003-4.669-2.876 1.757a1.599 1.599 0 0 0-.616 2.037l.98 2.109-4.046 1.681a7.758 7.758 0 0 1-8.114-1.351l-3.433-3.034a.959.959 0 0 0-1.592.669l-.709 13.649.822 3.213z" fill="#013b84"/><path d="m25.499 273.234.636 1.351a6.938 6.938 0 0 0 6.276 3.981h28.561c.549 0 1.089-.141 1.567-.411l6.323-3.559H45.346c-.416 0-.816-.163-1.115-.453a8.03 8.03 0 0 0-5.6-2.276H26.366a.958.958 0 0 0-.867 1.367z" fill="#016eea"/><path d="m78.666 89.711-30.101-8.523c-2.746 2.305-6.567 31.783-6.549 35.368l-6.339 54.127-7.377 25.971a25.582 25.582 0 0 0-.933 8.434l2.425 42.888 17.481 4.105 12.378-62.414 4.047-5.706a10.227 10.227 0 0 0 1.749-4.25l4.261-25.771 7.239-52.786z" fill="#2888ff"/><path d="M55.052 114.229H10.095C4.52 114.229 0 109.709 0 104.134v-62.89c0-5.575 4.52-10.095 10.095-10.095h44.957c5.575 0 10.095 4.52 10.095 10.095v62.89c0 5.575-4.519 10.095-10.095 10.095z" fill="#016EEA"/><path d="m25.955 100.427-1.289 1.927a25.212 25.212 0 0 0-3.754 19.018l.826 4.08.258 64.814s21.374-1.219 21.439-1.623l13.017-82.433z" fill="#2888ff"/><path d="m75.378 120.657-55.135-.088V53.665h55.135z" fill="#013b84"/><path d="m24.672 37.634 46.788 6.052a11.235 11.235 0 0 1 6.081 2.798l31.255 28.184H70.628l-58.423-3.931L12 48.878c-.063-6.817 5.911-12.118 12.672-11.244z" fill="#013b84"/><path d="M54.199 75.653V26.698H38.157v15.419l14.231 33.901c.398.948 1.811.664 1.811-.365z" fill="#99644c"/><path d="M59.774 274.637v.003c.022 0 .019-.003 0-.003z" fill="#29abe2"/><path d="M64.436 125.325h-8.78v37.217l11.438-33.502a2.808 2.808 0 0 0-2.658-3.715z" opacity=".07"/><path d="M51.152 3.993h-4.226a8.362 8.362 0 0 0-8.362 8.362v25.899l12.352-2.731 4.754-.032a5.616 5.616 0 0 0 5.578-5.616V18.283c.001-7.892-2.204-14.29-10.096-14.29z" fill="#99644c"/><path d="M46.998 28.334H40.13a5.616 5.616 0 0 1-5.616-5.616v-7.356h12.484z" fill="#002652"/><path d="M41.538 29.075h1.806a2.463 2.463 0 0 0 2.463-2.463V21.85a2.463 2.463 0 0 0-2.463-2.463h-1.806a2.463 2.463 0 0 0-2.463 2.463v4.762a2.463 2.463 0 0 0 2.463 2.463z" fill="#99644c"/><path d="M59.864 6.488s4.039 7.913 4.039 9.382v8.576l-.004 3.157a2.649 2.649 0 0 1-2.656 2.645V19.117c0-.928-.207-1.819-.576-2.488l-.803-1.451z" fill="#002652"/><path d="m16.475 87.754-2.551-1.578 12.738-20.588a20.946 20.946 0 0 0 3.136-11.029v-3.368a21.04 21.04 0 0 0-4.564-13.058l-3.081-3.87 2.347-1.869 3.081 3.87a24.053 24.053 0 0 1 5.217 14.927v3.368c0 4.457-1.24 8.816-3.585 12.607zM70.424 66h-3v-9.756c0-4.725-1.621-9.361-4.564-13.058l-3.081-3.87 2.347-1.869 3.081 3.87a24.058 24.058 0 0 1 5.217 14.927z" fill="#016EEA"/><path d="m12.071 67.14.825 35.192c.018.779.36 1.516.943 2.034l9.453 8.395 9.361-4.449-5.005-55.134z" fill="#013b84"/><path d="m54.185 105.564-23.762-9.643a6.282 6.282 0 0 0-7.034 1.622l-1.986 2.21a6.281 6.281 0 0 0 .474 8.871l3.614 3.247a6.282 6.282 0 0 0 4.125 1.609l18.109.213zm45.466-10.065 15.753-4.916a7.162 7.162 0 0 0 4.832-5.171l.821-3.433a7.162 7.162 0 0 0-5.215-8.61l-4.16-1.049a7.161 7.161 0 0 0-7.87 3.225l-5.623 9.253z" fill="#99644c"/><path d="M57.964 63.336h51.777v51.777H57.964z" fill="#0055DF"/><path d="M85.4 116.242v.011a.491.491 0 0 1-.404.556l-8.828 1.404a6.498 6.498 0 0 1-2.847-.18l-4.06-1.146-2.336 1.191a3.679 3.679 0 0 1-2.639.281l-7.626-2.016-.062-.017a8.065 8.065 0 0 0-.803-.146l.006-.011-16.263-2.578 11.158-7.16c2.016-2.319 3.65-2.454 5.835-2.651l3.841-.337a7.803 7.803 0 0 1 4.021.842 8.94 8.94 0 0 0 2.409.854c2.375.505 6.099 1.376 6.099 1.376a1.465 1.465 0 0 1 1.016 1.398v.14a1.426 1.426 0 0 1-1.527 1.314c-.792-.051-5.515-.303-6.992-.354h-.011a.572.572 0 0 0-.539.371.536.536 0 0 0 .174.612l1.46 1.14 8.817 3.701 8.188-.124a1.932 1.932 0 0 1 1.909 1.499zm24.03-37.21v16.707l-2.46.781a5.328 5.328 0 0 0-2.375 1.527l-6.02 6.829c-.006 0-.011.006-.011.006a.492.492 0 0 1-.702-.028c-.477-.623-.438-1.606.157-2.364l4.964-6.57c.163-.174-.112-.505-.309-.376L92.498 102.3c-.006.006-.011.006-.017.011a.498.498 0 0 1-.691-.129c-.399-.674-.236-1.64.455-2.325l9.013-7.334a.227.227 0 0 0 .062-.253.223.223 0 0 0-.292-.118l-11.473 5.29c-.006 0-.011.006-.017.006a.486.486 0 0 1-.657-.213c-.298-.73.022-1.662.797-2.229l10.754-6.312a.366.366 0 0 0 .174-.41.365.365 0 0 0-.444-.27L89.05 90.64c-.011 0-.017.006-.028.006a.493.493 0 0 1-.601-.354c-.146-.769.348-1.623 1.224-2.027l12.635-4.431c.084-.028.168-.062.247-.107a1.683 1.683 0 0 0 .674-2.28l-.006-.034a2.008 2.008 0 0 0-1.337-1l-2.724-.584a3.93 3.93 0 0 1-1.853-.938c-.455-.449-.797-.994-.797-1.533 0-.079.006-.157.022-.236.006-.028.011-.056.022-.084a.665.665 0 0 1 .854-.399l8.306 2.112 2.039.051c.58.011 1.147.09 1.703.23z" fill="#99644c"/><path d="M53.851 21.476h-4.316V20.06c0-.877.711-1.588 1.588-1.588h4.316v1.416a1.587 1.587 0 0 1-1.588 1.588z" fill="#002652" opacity=".1"/><g fill="#013b84"><path d="M49.654 70.514H38.086V37.066h8.761a2.808 2.808 0 0 1 2.808 2.808v30.64z"/><path d="M49.531 70.514h5.281V37.066h-2.473a2.808 2.808 0 0 0-2.808 2.808z"/><path d="M37.945 59.951h17.592v18.61H37.945z"/></g><path d="M63.157 18.356c-.172.057-1.462.049-2.534.031a1.455 1.455 0 0 0-1.479 1.456v.248c0 .512.084 1.02.249 1.505l.9 2.643a1.597 1.597 0 0 1-.82 1.955l-1.433.69v.431a.874.874 0 0 1-.874.874h-1.434v.602c0 .997.809 1.806 1.806 1.806h4.084z" fill="#002652" opacity=".1"/><path d="m15.19 217.703 2.381 28.286.81 9.636.442 5.263.131 1.557.424 5.034.208 2.483.315 3.776.019.216 5.4 1.021c1.278.244 2.633.5 3.883.742.707.133 1.377.263 1.984.38 1.559.298 2.684.521 2.828.557l.041-.455.118-1.288.936-10.128 1.048-11.36 3.532-38.326 4.161-28.471-20.794-3.985-7.459 29.948a15.777 15.777 0 0 0-.408 5.114z" fill="#2888ff"/><path d="m35.521 260.37-.41 4.414-.938 10.131-.118 1.286-.039.455c-.146-.034-1.269-.258-2.83-.556-.606-.118-1.275-.247-1.982-.382-1.252-.242-2.606-.5-3.88-.741l-5.402-1.022-.017-.213-.32-3.779-.208-2.482-.421-5.032-.135-1.561-.045-.517h16.745z" fill="#016EEA"/><path d="m35.521 260.37-.41 4.414-.938 10.131-.118 1.286-.039.455c-.146-.034-1.269-.258-2.83-.556-.606-.118-1.275-.247-1.982-.382-1.252-.242-2.606-.5-3.88-.741l-5.402-1.022-.017-.213-.32-3.779-.208-2.482-.421-5.032-.135-1.561-.045-.517h16.745z" fill="#016EEA"/><path d="M16.791 288.383h20.278l1.09-5.011a6.303 6.303 0 0 0-.571-4.255l-2.724-5.218-8.223-4.635-8.274 4.635-1.432 3.688a15 15 0 0 0-.579 9.03z" fill="#013b84"/><path d="M19.774 292.728h13.97c.787 0 1.487-.43 1.74-1.068l1.414-3.567H16.62l1.414 3.567c.254.638.953 1.068 1.74 1.068z" fill="#016eea"/><path d="M22.966 268.104h7.588a2 2 0 0 1 2 2v9.298H20.966v-9.298a2 2 0 0 1 2-2z" fill="#013b84"/><path d="M34.668 58.512h15.724v4.773H34.668z" fill="#016eea"/><path d="m112.404 94.03-3.211 1.788-.202-16.857 6.136 1.079v9.358a5.301 5.301 0 0 1-2.723 4.632z" fill="#99644c"/><path d="M58.37 13.465h-9.093V6.512h-6.123v17.293a5.923 5.923 0 0 1-1.117 3.461L40.37 29.58a2.824 2.824 0 0 0-.533 1.66l.002.853a2.625 2.625 0 0 0 2.626 2.618h.992v-2.243c0-1.183.958-2.142 2.141-2.142a3.681 3.681 0 0 0 3.679-3.681v-3.114a6.794 6.794 0 0 1 4.216-6.285l4.877-2z" fill="#002652"/><path d="M48.442 0H46.83c-6.802 0-12.316 5.514-12.316 12.316v3.168h29.353v-.06C63.866 6.906 56.96 0 48.442 0z" fill="#002652"/></svg></g><g transform="translate(541.0 185.0) rotate(0.0 23.0 10.0) scale(0.9835574846586415 0.9551098376313275)"><svg width="46.769" height="20.94" viewBox="0 0 46.769 20.94"><g fill="#016eea"><path d="M29.31 0h2.03c8.521 0 15.429 6.908 15.429 15.429v4.511a1 1 0 0 1-1 1H11.931a1 1 0 0 1-1-1v-1.56C10.931 8.229 19.159 0 29.31 0z"/><path d="M31.117 18.534H2.372A2.372 2.372 0 0 0 0 20.906h31.117z"/></g></svg></g></svg>